<?xml version="1.0" standalone="no"?>
<!DOCTYPE svg PUBLIC "-//W3C//DTD SVG 20010904//EN"
 "http://www.w3.org/TR/2001/REC-SVG-20010904/DTD/svg10.dtd">
<svg version="1.0" xmlns="http://www.w3.org/2000/svg"
 width="80.000000pt" height="80.000000pt" viewBox="0 0 80.000000 80.000000"
 preserveAspectRatio="xMidYMid meet">
<metadata>
Created by potrace 1.10, written by Peter Selinger 2001-2011
</metadata>
<g transform="translate(0.000000,80.000000) scale(0.100000,-0.100000)"
fill="#000000" stroke="none">
<path d="M330 776 c-204 -45 -329 -239 -286 -443 18 -87 51 -147 112 -203 89
-82 225 -118 341 -91 l49 12 12 92 c6 51 25 161 42 245 34 176 32 162 22 162
-13 0 -32 -48 -26 -64 3 -8 1 -36 -4 -62 -38 -189 -58 -318 -54 -336 1 -4 -10
-15 -24 -24 -18 -12 -47 -17 -107 -17 -72 0 -91 4 -149 32 -278 132 -276 529
2 660 46 22 69 26 145 26 82 0 97 -3 157 -33 105 -51 179 -148 193 -250 4 -26
8 -56 10 -68 10 -70 -39 -196 -103 -263 -54 -56 -66 -54 -57 12 7 55 40 235
55 303 11 49 2 114 -17 121 -7 3 -22 -2 -33 -12 -19 -17 -90 -155 -90 -175 0
-5 -4 -10 -9 -10 -9 0 -7 34 9 175 13 108 13 119 -8 145 -15 19 -22 21 -39 11
-39 -20 -98 -144 -138 -286 l-22 -80 5 126 c4 119 3 128 -17 148 -31 31 -57
26 -110 -24 -84 -78 -121 -187 -87 -253 21 -42 87 -70 106 -47 10 12 9 16 -6
20 -59 18 -69 30 -72 79 -4 59 33 141 81 182 l32 27 3 -59 c2 -32 -1 -97 -7
-144 -7 -47 -12 -131 -13 -187 -1 -87 2 -106 17 -123 19 -21 40 -26 49 -11 4
5 13 47 22 93 30 163 76 334 110 407 19 41 37 71 41 68 6 -7 -4 -92 -29 -252
-16 -101 -16 -221 0 -237 21 -21 44 3 58 59 7 29 30 94 50 145 50 129 48 124
37 113 -9 -10 -74 -174 -88 -223 -4 -13 -9 -21 -12 -18 -3 2 2 27 11 54 9 27
14 57 10 68 -5 16 -4 16 5 4 8 -11 11 -12 11 -2 0 7 16 48 35 90 37 79 71 125
86 116 14 -9 10 -75 -11 -180 -23 -118 -50 -282 -50 -308 0 -16 4 -15 38 9
115 86 170 203 159 341 -13 173 -132 306 -305 343 -63 13 -71 13 -142 -3z
m178 -107 c2 -24 -4 -111 -13 -194 -9 -82 -18 -183 -20 -224 -4 -77 -7 -87
-24 -76 -16 9 -13 125 4 230 17 105 31 285 22 285 -12 0 -59 -83 -84 -149 -23
-61 -82 -302 -98 -398 -8 -52 -19 -60 -39 -31 -20 29 -21 144 -1 288 19 142
20 220 0 220 -24 0 -85 -61 -111 -111 -47 -94 -25 -187 45 -190 23 -2 24 -2 4
-6 -53 -10 -100 52 -89 120 16 98 120 220 171 201 36 -14 44 -83 25 -214 -9
-67 -23 -305 -14 -260 55 290 113 468 177 538 29 31 41 23 45 -29z"/>
</g>
</svg>
